# xmcd
#
# Track frame offsets: 
#        150
#        10786
#        32956
#        62314
#        80739
#        95605
#        116059
#        136380
#        164481
#
# Disc length: 2553 seconds
#
# Revision: 0
# Processed by: cddbd v1.5.2PL0 Copyright (c) Steve Scherf et al.
# Submitted via: ExactAudioCopy v1.0b3
#
DISCID=7309f709
DTITLE=Leadfoot Rivet - One Night On The Road Live!
DYEAR=2014
DGENRE=Blues
TTITLE0=Funny Bone
TTITLE1=You're a Fool To Yourself
TTITLE2=Shevedaddy Song
TTITLE3=Between a Woman and a Man
TTITLE4=Swing Dat Hammer
TTITLE5=Why People Act Like That?
TTITLE6=Part Time Love
TTITLE7=The Road To Cairo
TTITLE8=I Was All Wrong
EXTD=
EXTT0=
EXTT1=
EXTT2=
EXTT3=
EXTT4=
EXTT5=
EXTT6=
EXTT7=
EXTT8=
PLAYORDER=
